<?xml version="1.0" encoding="UTF-8" standalone="no"?>
<svg
   xmlns:dc="http://purl.org/dc/elements/1.1/"
   xmlns:cc="http://creativecommons.org/ns#"
   xmlns:rdf="http://www.w3.org/1999/02/22-rdf-syntax-ns#"
   xmlns:svg="http://www.w3.org/2000/svg"
   xmlns="http://www.w3.org/2000/svg"
   width="150"
   height="63"
   viewBox="0 0 150 63"
   version="1.1"
   id="svg8">
  <defs
     id="defs2" />
  <metadata
     id="metadata5">
    <rdf:RDF>
      <cc:Work
         rdf:about="">
        <dc:format>image/svg+xml</dc:format>
        <dc:type
           rdf:resource="http://purl.org/dc/dcmitype/StillImage" />
        <dc:title></dc:title>
      </cc:Work>
    </rdf:RDF>
  </metadata>
  <g
     id="layer1">
    <g
       id="g946"
       transform="matrix(1.240822,0,0,1.240822,-20.701004,-101.54014)">
      <path
         id="rect833"
         style="opacity:0.346;fill:#98971a;fill-opacity:1;stroke:none;stroke-width:1.85207;stroke-linecap:round;stroke-linejoin:round;stroke-miterlimit:4;stroke-dasharray:none;stroke-opacity:1"
         d="M 24.884227,81.833212 H 128.99601 c 4.60053,0 8.30095,3.676889 8.30095,8.244147 v 23.377101 c 0,4.56726 -3.70042,8.24415 -8.30095,8.24415 H 35.185394 l -10.301167,8.6791 c 0,0 0,0 0,-8.6791 -5.200588,0 -8.200929,-3.67689 -8.200929,-8.24415 V 90.077359 c 0,-4.567258 3.600408,-8.244147 8.200929,-8.244147 z" />
      <g
         aria-label="General Kenobi"
         id="text840"
         style="font-style:normal;font-weight:normal;font-size:10.5833px;line-height:1.25;font-family:sans-serif;letter-spacing:0px;word-spacing:0px;fill:#458588;fill-opacity:1;stroke:none;stroke-width:0.264583">
        <path
           d="m 24.379563,87.736277 c -1.968494,0 -3.513655,1.354662 -3.513655,3.841738 0,2.508242 1.121829,3.852321 3.365489,3.852321 0.920747,0 1.873244,-0.285749 2.635242,-0.772581 v -3.630072 h -2.804575 l 0.169333,1.227663 h 0.952497 v 1.661578 c -0.306916,0.169333 -0.634998,0.243416 -0.99483,0.243416 -1.015997,0 -1.523995,-0.656165 -1.523995,-2.582325 0,-1.820328 0.761997,-2.582325 1.788577,-2.582325 0.592665,0 0.99483,0.179916 1.492245,0.560914 l 0.878414,-0.920747 c -0.603248,-0.529165 -1.375829,-0.89958 -2.444742,-0.89958 z"
           style="font-style:normal;font-variant:normal;font-weight:bold;font-stretch:normal;font-family:'Fira Sans';-inkscape-font-specification:'Fira Sans Bold';fill:#458588;fill-opacity:1;stroke-width:0.264583"
           id="path850" />
        <path
           d="m 32.899104,92.329429 c 0,-1.820328 -0.984247,-2.878658 -2.592908,-2.878658 -1.703912,0 -2.624659,1.333496 -2.624659,3.016241 0,1.756828 0.952497,2.963324 2.825741,2.963324 0.910164,0 1.629828,-0.338666 2.190743,-0.783164 l -0.687914,-0.931331 c -0.486832,0.338666 -0.888997,0.497415 -1.344079,0.497415 -0.687915,0 -1.164163,-0.275166 -1.269996,-1.280579 h 3.471322 c 0.02117,-0.169333 0.03175,-0.423332 0.03175,-0.603248 z m -1.640411,-0.402165 h -1.873245 c 0.08467,-1.015997 0.402166,-1.365246 0.963081,-1.365246 0.666748,0 0.89958,0.529165 0.910164,1.291162 z"
           style="font-style:normal;font-variant:normal;font-weight:bold;font-stretch:normal;font-family:'Fira Sans';-inkscape-font-specification:'Fira Sans Bold';fill:#458588;fill-opacity:1;stroke-width:0.264583"
           id="path852" />
        <path
           d="m 37.142996,89.450771 c -0.709081,0 -1.248829,0.296333 -1.714494,0.857248 l -0.127,-0.677331 H 33.85159 v 5.619732 h 1.672162 v -3.841738 c 0.285749,-0.465665 0.603248,-0.730248 0.973663,-0.730248 0.328082,0 0.529165,0.15875 0.529165,0.751414 v 3.820572 h 1.672161 v -4.106321 c 0,-1.068913 -0.582081,-1.693328 -1.555745,-1.693328 z"
           style="font-style:normal;font-variant:normal;font-weight:bold;font-stretch:normal;font-family:'Fira Sans';-inkscape-font-specification:'Fira Sans Bold';fill:#458588;fill-opacity:1;stroke-width:0.264583"
           id="path854" />
        <path
           d="m 44.826471,92.329429 c 0,-1.820328 -0.984247,-2.878658 -2.592908,-2.878658 -1.703911,0 -2.624659,1.333496 -2.624659,3.016241 0,1.756828 0.952497,2.963324 2.825741,2.963324 0.910164,0 1.629829,-0.338666 2.190743,-0.783164 l -0.687914,-0.931331 c -0.486832,0.338666 -0.888997,0.497415 -1.344079,0.497415 -0.687915,0 -1.164163,-0.275166 -1.269996,-1.280579 h 3.471322 c 0.02117,-0.169333 0.03175,-0.423332 0.03175,-0.603248 z M 43.18606,91.927264 h -1.873244 c 0.08467,-1.015997 0.402165,-1.365246 0.96308,-1.365246 0.666748,0 0.89958,0.529165 0.910164,1.291162 z"
           style="font-style:normal;font-variant:normal;font-weight:bold;font-stretch:normal;font-family:'Fira Sans';-inkscape-font-specification:'Fira Sans Bold';fill:#458588;fill-opacity:1;stroke-width:0.264583"
           id="path856" />
        <path
           d="m 48.826947,89.471938 c -0.645582,0 -1.195913,0.465665 -1.449912,1.248829 l -0.148167,-1.090079 h -1.449912 v 5.619732 h 1.672162 v -2.825741 c 0.190499,-0.836081 0.476248,-1.333496 1.164163,-1.333496 0.179916,0 0.328082,0.03175 0.507998,0.07408 l 0.264583,-1.619245 c -0.1905,-0.05292 -0.349249,-0.07408 -0.560915,-0.07408 z"
           style="font-style:normal;font-variant:normal;font-weight:bold;font-stretch:normal;font-family:'Fira Sans';-inkscape-font-specification:'Fira Sans Bold';fill:#458588;fill-opacity:1;stroke-width:0.264583"
           id="path858" />
        <path
           d="m 54.192665,93.620591 v -2.180159 c 0,-1.301746 -0.698498,-1.989661 -2.328326,-1.989661 -0.634998,0 -1.407579,0.148167 -2.11666,0.412749 l 0.380999,1.100663 c 0.560915,-0.190499 1.111246,-0.296332 1.471079,-0.296332 0.687914,0 0.952497,0.201083 0.952497,0.86783 v 0.243416 h -0.571499 c -1.693328,0 -2.635241,0.666748 -2.635241,1.894411 0,1.02658 0.709081,1.756828 1.830911,1.756828 0.666747,0 1.291162,-0.22225 1.693328,-0.836081 0.264582,0.550332 0.698497,0.751414 1.354662,0.804331 l 0.349249,-1.09008 c -0.264583,-0.09525 -0.380999,-0.253999 -0.380999,-0.687915 z m -2.529409,0.613832 c -0.412748,0 -0.645581,-0.264583 -0.645581,-0.709081 0,-0.560915 0.359832,-0.825498 1.12183,-0.825498 h 0.412749 v 1.005414 c -0.201083,0.328082 -0.507999,0.529165 -0.888998,0.529165 z"
           style="font-style:normal;font-variant:normal;font-weight:bold;font-stretch:normal;font-family:'Fira Sans';-inkscape-font-specification:'Fira Sans Bold';fill:#458588;fill-opacity:1;stroke-width:0.264583"
           id="path860" />
        <path
           d="m 56.901973,95.430336 c 0.412748,0 0.77258,-0.08467 1.015996,-0.1905 L 57.60047,94.054507 c -0.07408,0.03175 -0.169332,0.05292 -0.275165,0.05292 -0.201083,0 -0.296333,-0.116416 -0.296333,-0.349249 v -6.540479 l -1.672161,0.179916 v 6.424063 c 0,1.02658 0.571498,1.608662 1.545162,1.608662 z"
           style="font-style:normal;font-variant:normal;font-weight:bold;font-stretch:normal;font-family:'Fira Sans';-inkscape-font-specification:'Fira Sans Bold';fill:#458588;fill-opacity:1;stroke-width:0.264583"
           id="path862" />
        <path
           d="m 62.892104,87.916193 h -1.735661 v 7.334227 h 1.735661 z m 4.212154,0 h -1.830911 l -2.328326,3.418406 2.338909,3.915821 h 2.010827 l -2.529409,-4.042821 z"
           style="font-style:normal;font-variant:normal;font-weight:bold;font-stretch:normal;font-family:'Fira Sans';-inkscape-font-specification:'Fira Sans Bold';fill:#458588;fill-opacity:1;stroke-width:0.264583"
           id="path864" />
        <path
           d="m 72.53347,92.329429 c 0,-1.820328 -0.984247,-2.878658 -2.592908,-2.878658 -1.703912,0 -2.624659,1.333496 -2.624659,3.016241 0,1.756828 0.952497,2.963324 2.825741,2.963324 0.910164,0 1.629828,-0.338666 2.190743,-0.783164 l -0.687914,-0.931331 c -0.486832,0.338666 -0.888997,0.497415 -1.344079,0.497415 -0.687915,0 -1.164163,-0.275166 -1.269996,-1.280579 h 3.471322 c 0.02117,-0.169333 0.03175,-0.423332 0.03175,-0.603248 z m -1.640411,-0.402165 h -1.873244 c 0.08467,-1.015997 0.402165,-1.365246 0.96308,-1.365246 0.666748,0 0.89958,0.529165 0.910164,1.291162 z"
           style="font-style:normal;font-variant:normal;font-weight:bold;font-stretch:normal;font-family:'Fira Sans';-inkscape-font-specification:'Fira Sans Bold';fill:#458588;fill-opacity:1;stroke-width:0.264583"
           id="path866" />
        <path
           d="m 76.777361,89.450771 c -0.709081,0 -1.248829,0.296333 -1.714494,0.857248 l -0.127,-0.677331 h -1.449912 v 5.619732 h 1.672162 v -3.841738 c 0.285749,-0.465665 0.603248,-0.730248 0.973663,-0.730248 0.328082,0 0.529165,0.15875 0.529165,0.751414 v 3.820572 h 1.672162 v -4.106321 c 0,-1.068913 -0.582082,-1.693328 -1.555746,-1.693328 z"
           style="font-style:normal;font-variant:normal;font-weight:bold;font-stretch:normal;font-family:'Fira Sans';-inkscape-font-specification:'Fira Sans Bold';fill:#458588;fill-opacity:1;stroke-width:0.264583"
           id="path868" />
        <path
           d="m 81.994929,89.450771 c -1.714494,0 -2.751658,1.18533 -2.751658,2.984491 0,1.894411 1.047747,2.995074 2.751658,2.995074 1.714495,0 2.751658,-1.18533 2.751658,-2.984491 0,-1.89441 -1.037163,-2.995074 -2.751658,-2.995074 z m 0,1.227663 c 0.677332,0 1.015997,0.518582 1.015997,1.767411 0,1.21708 -0.338665,1.756828 -1.015997,1.756828 -0.677331,0 -1.015996,-0.518582 -1.015996,-1.767411 0,-1.21708 0.338665,-1.756828 1.015996,-1.756828 z"
           style="font-style:normal;font-variant:normal;font-weight:bold;font-stretch:normal;font-family:'Fira Sans';-inkscape-font-specification:'Fira Sans Bold';fill:#458588;fill-opacity:1;stroke-width:0.264583"
           id="path870" />
        <path
           d="m 88.916402,89.450771 c -0.624415,0 -1.174747,0.28575 -1.513412,0.751415 v -2.984491 l -1.672162,0.179916 v 7.852809 h 1.481662 l 0.08467,-0.539749 c 0.338665,0.444499 0.846664,0.719665 1.471078,0.719665 1.396996,0 2.233077,-1.24883 2.233077,-2.984491 0,-1.883827 -0.740831,-2.995074 -2.08491,-2.995074 z m -0.634998,4.762485 c -0.359833,0 -0.666748,-0.201082 -0.878414,-0.539748 v -2.338909 c 0.243416,-0.412749 0.571498,-0.656165 0.952497,-0.656165 0.529165,0 0.910163,0.338666 0.910163,1.767411 0,1.312329 -0.402165,1.767411 -0.984246,1.767411 z"
           style="font-style:normal;font-variant:normal;font-weight:bold;font-stretch:normal;font-family:'Fira Sans';-inkscape-font-specification:'Fira Sans Bold';fill:#458588;fill-opacity:1;stroke-width:0.264583"
           id="path872" />
        <path
           d="m 92.811048,86.667364 c -0.571498,0 -0.984247,0.412748 -0.984247,0.952497 0,0.539748 0.412749,0.952497 0.984247,0.952497 0.592665,0 0.99483,-0.412749 0.99483,-0.952497 0,-0.539749 -0.402165,-0.952497 -0.99483,-0.952497 z m 0.846664,2.963324 h -1.672161 v 5.619732 h 1.672161 z"
           style="font-style:normal;font-variant:normal;font-weight:bold;font-stretch:normal;font-family:'Fira Sans';-inkscape-font-specification:'Fira Sans Bold';fill:#458588;fill-opacity:1;stroke-width:0.264583"
           id="path874" />
      </g>
      <g
         aria-label="Hello there!"
         id="text844"
         style="font-style:normal;font-weight:normal;font-size:10.5833px;line-height:1.25;font-family:sans-serif;letter-spacing:0px;word-spacing:0px;fill:#3c3836;fill-opacity:1;stroke:none;stroke-width:0.264583">
        <path
           d="m 25.036257,106.76773 h 1.005413 v -7.291893 h -1.005413 v 3.047993 H 21.9671 v -3.047993 h -1.005413 v 7.291893 H 21.9671 v -3.41841 h 3.069157 z"
           style="font-style:normal;font-variant:normal;font-weight:normal;font-stretch:normal;font-family:'Fira Sans';-inkscape-font-specification:'Fira Sans';fill:#3c3836;fill-opacity:1;stroke-width:0.264583"
           id="path877" />
        <path
           d="m 32.31755,103.81499 c 0,-1.70391 -0.793748,-2.75166 -2.296576,-2.75166 -1.439329,0 -2.317743,1.23825 -2.317743,2.97391 0,1.76741 0.910164,2.85749 2.465909,2.85749 0.772581,0 1.396996,-0.26458 1.947327,-0.6985 l -0.423332,-0.58208 c -0.486832,0.33867 -0.89958,0.48683 -1.449912,0.48683 -0.804331,0 -1.407579,-0.49741 -1.502828,-1.78857 h 3.555988 c 0.01058,-0.127 0.02117,-0.30692 0.02117,-0.49742 z m -0.96308,-0.22225 h -2.614075 c 0.07408,-1.23825 0.560915,-1.75683 1.301746,-1.75683 0.878413,0 1.312329,0.60325 1.312329,1.69333 z"
           style="font-style:normal;font-variant:normal;font-weight:normal;font-stretch:normal;font-family:'Fira Sans';-inkscape-font-specification:'Fira Sans';fill:#3c3836;fill-opacity:1;stroke-width:0.264583"
           id="path879" />
        <path
           d="m 34.931611,106.89473 c 0.285749,0 0.560915,-0.0741 0.772581,-0.1905 l -0.253999,-0.67733 c -0.105833,0.0423 -0.222249,0.0635 -0.359832,0.0635 -0.253999,0 -0.349249,-0.14817 -0.349249,-0.4445 v -6.815644 l -0.973664,0.116416 v 6.720398 c 0,0.79375 0.455082,1.22766 1.164163,1.22766 z"
           style="font-style:normal;font-variant:normal;font-weight:normal;font-stretch:normal;font-family:'Fira Sans';-inkscape-font-specification:'Fira Sans';fill:#3c3836;fill-opacity:1;stroke-width:0.264583"
           id="path881" />
        <path
           d="m 38.043088,106.89473 c 0.285749,0 0.560915,-0.0741 0.772581,-0.1905 L 38.56167,106.0269 c -0.105833,0.0423 -0.222249,0.0635 -0.359832,0.0635 -0.254,0 -0.349249,-0.14817 -0.349249,-0.4445 v -6.815644 l -0.973664,0.116416 v 6.720398 c 0,0.79375 0.455082,1.22766 1.164163,1.22766 z"
           style="font-style:normal;font-variant:normal;font-weight:normal;font-stretch:normal;font-family:'Fira Sans';-inkscape-font-specification:'Fira Sans';fill:#3c3836;fill-opacity:1;stroke-width:0.264583"
           id="path883" />
        <path
           d="m 42.128216,101.06333 c -1.587495,0 -2.497659,1.19592 -2.497659,2.92099 0,1.76741 0.899581,2.91041 2.487076,2.91041 1.576912,0 2.487075,-1.19591 2.487075,-2.92099 0,-1.76741 -0.888997,-2.91041 -2.476492,-2.91041 z m 0,0.78317 c 0.920747,0 1.428746,0.67733 1.428746,2.12724 0,1.46049 -0.507999,2.13783 -1.439329,2.13783 -0.93133,0 -1.439329,-0.67734 -1.439329,-2.12725 0,-1.46049 0.518582,-2.13782 1.449912,-2.13782 z"
           style="font-style:normal;font-variant:normal;font-weight:normal;font-stretch:normal;font-family:'Fira Sans';-inkscape-font-specification:'Fira Sans';fill:#3c3836;fill-opacity:1;stroke-width:0.264583"
           id="path885" />
        <path
           d="m 51.462677,105.86815 c -0.275165,0.14817 -0.497415,0.22225 -0.740831,0.22225 -0.486831,0 -0.666747,-0.26458 -0.666747,-0.8255 v -3.32315 h 1.217079 l 0.105833,-0.75142 h -1.322912 v -1.375827 l -0.973664,0.116416 v 1.259411 h -0.973664 v 0.75142 h 0.973664 v 3.36549 c 0,1.03716 0.560915,1.58749 1.502829,1.58749 0.476248,0 0.878413,-0.127 1.248829,-0.381 z"
           style="font-style:normal;font-variant:normal;font-weight:normal;font-stretch:normal;font-family:'Fira Sans';-inkscape-font-specification:'Fira Sans';fill:#3c3836;fill-opacity:1;stroke-width:0.264583"
           id="path887" />
        <path
           d="m 55.431395,101.06333 c -0.698498,0 -1.24883,0.34925 -1.650995,0.89958 v -3.111487 l -0.973664,0.105833 v 7.810474 H 53.7804 v -3.96874 c 0.370415,-0.58208 0.804331,-0.97366 1.407579,-0.97366 0.529165,0 0.888997,0.24342 0.888997,1.0795 v 3.8629 h 0.973663 v -4.00049 c 0,-1.04774 -0.603248,-1.70391 -1.619244,-1.70391 z"
           style="font-style:normal;font-variant:normal;font-weight:normal;font-stretch:normal;font-family:'Fira Sans';-inkscape-font-specification:'Fira Sans';fill:#3c3836;fill-opacity:1;stroke-width:0.264583"
           id="path889" />
        <path
           d="m 63.178354,103.81499 c 0,-1.70391 -0.793748,-2.75166 -2.296576,-2.75166 -1.439329,0 -2.317743,1.23825 -2.317743,2.97391 0,1.76741 0.910164,2.85749 2.465909,2.85749 0.772581,0 1.396995,-0.26458 1.947327,-0.6985 l -0.423332,-0.58208 c -0.486832,0.33867 -0.899581,0.48683 -1.449912,0.48683 -0.804331,0 -1.407579,-0.49741 -1.502829,-1.78857 h 3.555989 c 0.01058,-0.127 0.02117,-0.30692 0.02117,-0.49742 z m -0.963081,-0.22225 h -2.614075 c 0.07408,-1.23825 0.560915,-1.75683 1.301746,-1.75683 0.878414,0 1.312329,0.60325 1.312329,1.69333 z"
           style="font-style:normal;font-variant:normal;font-weight:normal;font-stretch:normal;font-family:'Fira Sans';-inkscape-font-specification:'Fira Sans';fill:#3c3836;fill-opacity:1;stroke-width:0.264583"
           id="path891" />
        <path
           d="m 67.115327,101.06333 c -0.677331,0 -1.195913,0.42333 -1.492245,1.25941 l -0.09525,-1.13241 h -0.83608 v 5.5774 h 0.973663 v -3.18557 c 0.232833,-1.06892 0.634998,-1.56633 1.333496,-1.56633 0.201083,0 0.317499,0.0212 0.486832,0.0635 l 0.179916,-0.9525 c -0.169333,-0.0423 -0.370416,-0.0635 -0.550332,-0.0635 z"
           style="font-style:normal;font-variant:normal;font-weight:normal;font-stretch:normal;font-family:'Fira Sans';-inkscape-font-specification:'Fira Sans';fill:#3c3836;fill-opacity:1;stroke-width:0.264583"
           id="path893" />
        <path
           d="m 72.777383,103.81499 c 0,-1.70391 -0.793747,-2.75166 -2.296576,-2.75166 -1.439329,0 -2.317743,1.23825 -2.317743,2.97391 0,1.76741 0.910164,2.85749 2.465909,2.85749 0.772581,0 1.396996,-0.26458 1.947327,-0.6985 l -0.423332,-0.58208 c -0.486831,0.33867 -0.89958,0.48683 -1.449912,0.48683 -0.80433,0 -1.407578,-0.49741 -1.502828,-1.78857 h 3.555988 c 0.01058,-0.127 0.02117,-0.30692 0.02117,-0.49742 z m -0.96308,-0.22225 h -2.614075 c 0.07408,-1.23825 0.560915,-1.75683 1.301746,-1.75683 0.878414,0 1.312329,0.60325 1.312329,1.69333 z"
           style="font-style:normal;font-variant:normal;font-weight:normal;font-stretch:normal;font-family:'Fira Sans';-inkscape-font-specification:'Fira Sans';fill:#3c3836;fill-opacity:1;stroke-width:0.264583"
           id="path895" />
        <path
           d="m 75.116279,99.475837 h -1.079497 l 0.116416,4.857733 h 0.857248 z m -0.529165,5.947813 c -0.412749,0 -0.730248,0.32808 -0.730248,0.73025 0,0.41275 0.317499,0.74083 0.730248,0.74083 0.423332,0 0.740831,-0.32808 0.740831,-0.74083 0,-0.40217 -0.317499,-0.73025 -0.740831,-0.73025 z"
           style="font-style:normal;font-variant:normal;font-weight:normal;font-stretch:normal;font-family:'Fira Sans';-inkscape-font-specification:'Fira Sans';fill:#3c3836;fill-opacity:1;stroke-width:0.264583"
           id="path897" />
      </g>
      <g
         aria-label="04:20"
         id="text848"
         style="font-style:normal;font-weight:normal;font-size:7.76111px;line-height:1.25;font-family:sans-serif;letter-spacing:0px;word-spacing:0px;fill:#7c7f64;fill-opacity:1;stroke:none;stroke-width:0.264583">
        <path
           d="m 112.85701,111.9736 c -1.14864,0 -1.74625,0.98566 -1.74625,2.75519 0,1.77729 0.59761,2.76295 1.74625,2.76295 1.14865,0 1.74625,-0.98566 1.74625,-2.76295 0,-1.76953 -0.5976,-2.75519 -1.74625,-2.75519 z m 0,0.52775 c 0.66746,0 1.06327,0.65193 1.06327,2.22744 0,1.58327 -0.39581,2.2352 -1.06327,2.2352 -0.65969,0 -1.06327,-0.65193 -1.06327,-2.2352 0,-1.57551 0.40358,-2.22744 1.06327,-2.22744 z m 0,1.72297 c -0.28716,0 -0.50447,0.22507 -0.50447,0.50447 0,0.28716 0.21731,0.51223 0.50447,0.51223 0.29492,0 0.51224,-0.22507 0.51224,-0.51223 0,-0.2794 -0.21732,-0.50447 -0.51224,-0.50447 z"
           style="font-style:normal;font-variant:normal;font-weight:normal;font-stretch:normal;font-size:7.76111px;font-family:'Fira Mono';-inkscape-font-specification:'Fira Mono';fill:#7c7f64;fill-opacity:1;stroke-width:0.264583"
           id="path900" />
        <path
           d="m 119.2832,115.58251 h -0.69074 v -1.51342 h -0.56656 l -0.0543,1.51342 h -1.5367 l 1.42028,-3.37608 -0.54327,-0.23283 -1.56775,3.65548 v 0.48119 h 2.21968 v 1.2961 h 0.62865 v -1.2961 h 0.69074 z"
           style="font-style:normal;font-variant:normal;font-weight:normal;font-stretch:normal;font-size:7.76111px;font-family:'Fira Mono';-inkscape-font-specification:'Fira Mono';fill:#7c7f64;fill-opacity:1;stroke-width:0.264583"
           id="path902" />
        <path
           d="m 121.54167,114.06133 c 0,0.34925 0.26388,0.63641 0.62089,0.63641 0.36477,0 0.62865,-0.28716 0.62865,-0.63641 0,-0.34149 -0.26388,-0.62089 -0.62865,-0.62089 -0.35701,0 -0.62089,0.2794 -0.62089,0.62089 z m 0,2.80176 c 0,0.35702 0.26388,0.62865 0.62089,0.62865 0.36477,0 0.62865,-0.27163 0.62865,-0.62865 0,-0.34148 -0.26388,-0.62865 -0.62865,-0.62865 -0.35701,0 -0.62089,0.28717 -0.62089,0.62865 z"
           style="font-style:normal;font-variant:normal;font-weight:normal;font-stretch:normal;font-size:7.76111px;font-family:'Fira Mono';-inkscape-font-specification:'Fira Mono';fill:#7c7f64;fill-opacity:1;stroke-width:0.264583"
           id="path904" />
        <path
           d="m 126.58638,111.9736 c -0.72178,0 -1.21073,0.25611 -1.62983,0.76835 l 0.45014,0.34925 c 0.34149,-0.39582 0.62865,-0.56657 1.14864,-0.56657 0.59761,0 0.96238,0.36478 0.96238,0.96238 0,0.86925 -0.43462,1.45909 -2.45251,3.39161 v 0.52775 h 3.18206 l 0.0776,-0.5588 h -2.5146 c 1.76177,-1.60655 2.39042,-2.39818 2.39042,-3.38384 0,-0.84596 -0.60537,-1.49013 -1.61431,-1.49013 z"
           style="font-style:normal;font-variant:normal;font-weight:normal;font-stretch:normal;font-size:7.76111px;font-family:'Fira Mono';-inkscape-font-specification:'Fira Mono';fill:#7c7f64;fill-opacity:1;stroke-width:0.264583"
           id="path906" />
        <path
           d="m 131.48363,111.9736 c -1.14865,0 -1.74625,0.98566 -1.74625,2.75519 0,1.77729 0.5976,2.76295 1.74625,2.76295 1.14864,0 1.74625,-0.98566 1.74625,-2.76295 0,-1.76953 -0.59761,-2.75519 -1.74625,-2.75519 z m 0,0.52775 c 0.66745,0 1.06327,0.65193 1.06327,2.22744 0,1.58327 -0.39582,2.2352 -1.06327,2.2352 -0.6597,0 -1.06327,-0.65193 -1.06327,-2.2352 0,-1.57551 0.40357,-2.22744 1.06327,-2.22744 z m 0,1.72297 c -0.28716,0 -0.50447,0.22507 -0.50447,0.50447 0,0.28716 0.21731,0.51223 0.50447,0.51223 0.29492,0 0.51223,-0.22507 0.51223,-0.51223 0,-0.2794 -0.21731,-0.50447 -0.51223,-0.50447 z"
           style="font-style:normal;font-variant:normal;font-weight:normal;font-stretch:normal;font-size:7.76111px;font-family:'Fira Mono';-inkscape-font-specification:'Fira Mono';fill:#7c7f64;fill-opacity:1;stroke-width:0.264583"
           id="path908" />
      </g>
    </g>
  </g>
</svg>
